<?xml version="1.0" standalone="no"?>
<!DOCTYPE svg PUBLIC "-//W3C//DTD SVG 20010904//EN"
 "http://www.w3.org/TR/2001/REC-SVG-20010904/DTD/svg10.dtd">
<svg version="1.0" xmlns="http://www.w3.org/2000/svg"
 width="300.000000pt" height="300.000000pt" viewBox="0 0 300.000000 300.000000"
 preserveAspectRatio="xMidYMid meet">
<metadata>
Created by potrace 1.11, written by Peter Selinger 2001-2013
</metadata>
<g transform="translate(0.000000,300.000000) scale(0.100000,-0.100000)"
fill="#000000" stroke="none">
<path d="M2120 2849 c-223 -82 -430 -158 -460 -169 -30 -10 -93 -33 -140 -51
-47 -17 -134 -49 -195 -71 -60 -21 -126 -45 -145 -52 -19 -7 -141 -51 -270
-98 -129 -47 -281 -103 -338 -123 l-103 -38 3 -701 c4 -682 4 -703 25 -778 53
-187 137 -334 265 -461 143 -143 334 -245 535 -287 122 -25 344 -21 458 9 171
45 335 131 457 240 152 135 265 336 309 546 17 85 19 154 19 1138 0 576 -3
1047 -7 1046 -5 -1 -190 -68 -413 -150z m330 -371 c2 -200 2 -390 -1 -392 -6
-5 -818 -308 -840 -313 -19 -5 -19 -1 -17 207 l3 213 420 158 c231 87 423 158
428 159 4 0 7 -15 7 -32z m-1675 -400 c105 -39 195 -75 201 -79 7 -6 10 -185
9 -576 -1 -622 0 -606 -61 -666 -83 -83 -204 -87 -293 -11 -76 66 -74 44 -75
770 -1 569 1 644 14 638 8 -3 101 -38 205 -76z m729 -576 l-1 -639 -22 -47
c-67 -136 -237 -166 -345 -59 -62 61 -60 44 -61 669 l-1 572 210 79 c116 44
213 76 216 72 3 -4 5 -295 4 -647z m776 195 l0 -213 -339 -127 c-186 -70 -341
-127 -345 -127 -3 0 -6 96 -6 213 l0 212 162 60 c254 94 297 110 398 147 52
20 102 38 110 41 8 3 16 6 17 6 1 1 2 -95 3 -212z m-270 -851 c-18 -59 -56
-102 -116 -132 -46 -22 -63 -26 -106 -21 -77 10 -137 50 -170 116 -26 51 -28
63 -28 182 l0 127 68 26 c37 15 132 50 212 80 l145 54 3 -196 c2 -128 -1 -211
-8 -236z"/>
</g>
</svg>
